<svg width="354" height="348" viewBox="0 0 354 348" fill="none" xmlns="http://www.w3.org/2000/svg">
<path d="M153.177 1.22331C102.19 8.46637 57.5876 35.7231 29.2825 76.9895C21.8488 87.9494 12.0326 107.487 8.31577 119.018C-5.88443 162.477 -1.78639 210.605 19.7522 251.013C46.4371 301.143 93.1358 335.357 147.935 344.887C175.383 349.652 216.554 346.507 219.317 339.55C221.128 334.69 219.031 329.639 214.076 327.065C211.503 325.731 210.264 325.731 201.877 327.065C188.058 329.257 165.757 329.067 151.175 326.589C135.546 323.92 123.823 320.204 108.861 312.865C89.4189 303.43 75.314 292.566 59.0172 274.744C12.795 224.043 5.74257 147.133 42.2438 91.0944C66.5461 53.8308 106.192 27.8129 150.318 20.1887C165.09 17.6155 189.011 17.9014 204.641 20.7605C239.712 27.1458 271.448 44.6816 293.94 70.3182C312.524 91.3803 324.056 113.205 329.965 138.46C333.396 153.137 334.444 162.762 334.349 180.775V197.358L337.684 200.693C340.734 203.743 341.306 203.934 345.308 203.457C351.598 202.79 352.456 201.551 353.505 190.686C355.506 170.768 351.313 139.985 343.307 117.017C326.438 68.5075 288.984 29.9096 240.951 11.6114C215.696 1.98574 178.813 -2.30291 153.177 1.22331Z" fill="white"/>
<path d="M157.465 54.5933C110.386 62.2176 72.6455 94.716 59.3983 138.937C55.6815 151.326 54.8237 158.283 54.8237 172.769C54.8237 208.985 68.4521 239.005 96.5666 264.642C118.105 284.37 149.936 295.33 181.291 293.995C193.395 293.519 207.5 291.041 208.739 289.23C209.12 288.563 209.31 284.656 209.215 280.462C208.929 271.79 209.787 272.266 198.922 274.839C193.585 276.174 187.677 276.555 175.097 276.555C159.753 276.555 157.656 276.364 148.983 273.982C134.116 269.884 124.395 265.118 112.673 256.255C90.7531 239.577 76.7435 215.084 72.5502 186.112C71.1206 176.391 71.0253 173.246 71.9783 164.097C74.075 144.655 80.0791 128.739 91.3249 112.919C121.345 70.6996 179.195 58.0242 225.607 83.3749C233.232 87.5683 240.761 93.2865 240.856 94.9066C240.856 96.6221 231.135 106.915 181.768 157.807L156.608 183.729L137.452 164.764C123.252 150.659 117.629 145.608 115.341 145.131C105.144 143.035 94.184 154.757 97.9008 163.716C99.1398 166.67 154.988 221.184 157.275 221.66C158.609 221.946 227.037 152.47 254.961 122.735C259.726 117.589 259.821 117.589 261.346 119.4C262.109 120.448 264.968 125.594 267.541 130.836C274.403 144.369 277.166 155.901 277.929 173.722L278.501 188.018L286.792 188.304L294.988 188.59L295.369 183.062C296.894 159.904 288.126 127.882 275.451 110.155L272.02 105.39L273.545 101.006C275.737 94.9066 275.546 90.4274 272.973 85.5669C269.828 79.6581 265.825 77.6567 258.01 78.4191C251.816 78.991 251.816 78.991 244.192 74.1305C229.896 64.9814 213.694 58.4054 198.541 55.5463C187.295 53.3544 167.854 52.8778 157.465 54.5933Z" fill="white"/>
<path d="M226.942 210.795C225.321 211.558 223.034 213.369 221.89 214.798L219.698 217.562L220.08 261.402C220.461 304.383 220.461 305.336 222.653 310.769C225.607 318.298 230.944 324.683 237.139 328.114L242.285 330.973L267.541 331.068C281.455 331.164 294.512 330.782 296.704 330.306C302.898 328.876 310.618 322.11 314.144 315.153C315.764 311.912 317.099 308.1 317.099 306.766C317.099 302.954 318.052 302.287 324.532 301.62C335.016 300.476 343.212 295.425 348.167 287.038C351.884 280.748 352.456 277.698 352.456 262.831C352.551 251.013 352.265 248.25 350.55 243.675C346.261 232.334 337.208 225.758 325.009 224.9C318.052 224.424 318.052 224.424 318.052 221.66C318.052 217.371 315.574 213.464 311.38 211.367C307.854 209.557 305.853 209.461 268.78 209.461C238.378 209.557 229.229 209.842 226.942 210.795ZM298.8 228.713C300.325 230.237 300.42 296.854 298.896 302.191C298.419 304.097 296.322 307.433 294.321 309.53L290.699 313.342H270.495C248.957 313.342 247.336 313.056 243.048 308.386C238.187 303.144 237.997 301.715 237.997 263.879V228.617L243.524 228.236C246.479 228.045 259.917 227.855 273.354 227.759C291.176 227.664 297.943 227.855 298.8 228.713ZM329.964 245.677C333.109 248.631 334.253 253.11 334.253 262.831C334.158 273.696 333.109 277.984 329.488 281.129C325.676 284.656 319.481 284.941 318.623 281.606C318.337 280.462 318.052 271.218 318.052 261.02V242.531L322.817 243.008C326.057 243.389 328.44 244.247 329.964 245.677Z" fill="white"/>
</svg>
